<?xml version="1.0" encoding="utf-8"?>
<!-- Generator: Adobe Illustrator 14.0.0, SVG Export Plug-In . SVG Version: 6.00 Build 43363)  -->
<!DOCTYPE svg PUBLIC "-//W3C//DTD SVG 1.1//EN" "http://www.w3.org/Graphics/SVG/1.1/DTD/svg11.dtd">
<svg version="1.1" id="Layer_1" xmlns="http://www.w3.org/2000/svg" xmlns:xlink="http://www.w3.org/1999/xlink" x="0px" y="0px"
	 width="100px" height="100px" viewBox="0 0 100 100" enable-background="new 0 0 100 100" xml:space="preserve">
<g>
	<path fill="#FFE600" d="M50,2c26.467,0,48,21.533,48,48c0,26.467-21.533,48-48,48C23.533,98,2,76.467,2,50C2,23.533,23.533,2,50,2
		 M50,0C22.386,0,0,22.386,0,50s22.386,50,50,50s50-22.386,50-50S77.614,0,50,0L50,0z"/>
</g>
<g>
	<path fill="#262626" d="M70,36H59.523c-5.09,0-7.934,1.323-9.523,2.681C48.41,37.323,45.566,36,40.477,36H30c-1.104,0-2,0.896-2,2
		v26c0,1.104,0.896,2,2,2h10.477c6.132,0,7.535,1.592,7.687,1.791c0.007,0.017,0.021,0.029,0.028,0.046
		c0.073,0.158,0.162,0.306,0.27,0.437c0.005,0.007,0.009,0.015,0.015,0.021c0.112,0.132,0.244,0.243,0.385,0.342
		c0.025,0.018,0.051,0.036,0.077,0.053c0.143,0.09,0.296,0.162,0.457,0.214c0.027,0.009,0.055,0.013,0.083,0.021
		c0.072,0.02,0.142,0.042,0.216,0.054c0.101,0.016,0.202,0.022,0.303,0.023c0,0,0.001,0,0.002,0s0,0,0.001,0s0,0,0.001,0
		c0.001,0,0.001,0,0.002,0c0.101-0.001,0.202-0.008,0.303-0.023c0.075-0.012,0.145-0.034,0.216-0.054
		c0.027-0.008,0.056-0.012,0.083-0.021c0.161-0.052,0.314-0.124,0.457-0.214c0.026-0.017,0.052-0.035,0.077-0.053
		c0.141-0.099,0.273-0.21,0.386-0.342c0.005-0.006,0.009-0.014,0.015-0.021c0.107-0.131,0.196-0.278,0.27-0.437
		c0.008-0.017,0.021-0.029,0.028-0.046C51.988,67.592,53.392,66,59.523,66H70c1.104,0,2-0.896,2-2V38C72,36.896,71.104,36,70,36z
		 M68,62h-8.477c-3.425,0-5.832,0.455-7.523,1.082V42.405C52.337,41.849,53.884,40,59.523,40H68V62z M32,40h8.477
		c5.64,0,7.187,1.849,7.523,2.405v20.677C46.309,62.455,43.901,62,40.477,62H32V40z"/>
	<path fill="#262626" d="M56,47c0,1.104,0.896,2,2,2h5c1.104,0,2-0.896,2-2s-0.896-2-2-2h-5C56.896,45,56,45.896,56,47z"/>
	<path fill="#262626" d="M63,53h-5c-1.104,0-2,0.896-2,2s0.896,2,2,2h5c1.104,0,2-0.896,2-2S64.104,53,63,53z"/>
	<path fill="#262626" d="M37,49h5c1.104,0,2-0.896,2-2s-0.896-2-2-2h-5c-1.104,0-2,0.896-2,2S35.896,49,37,49z"/>
	<path fill="#262626" d="M44,55c0-1.104-0.896-2-2-2h-5c-1.104,0-2,0.896-2,2s0.896,2,2,2h5C43.104,57,44,56.104,44,55z"/>
</g>
</svg>
