<?xml version="1.0" encoding="utf-8"?>
<!-- Generator: Adobe Illustrator 14.0.0, SVG Export Plug-In . SVG Version: 6.00 Build 43363)  -->
<!DOCTYPE svg PUBLIC "-//W3C//DTD SVG 1.1//EN" "http://www.w3.org/Graphics/SVG/1.1/DTD/svg11.dtd">
<svg version="1.1" id="Layer_1" xmlns="http://www.w3.org/2000/svg" xmlns:xlink="http://www.w3.org/1999/xlink" x="0px" y="0px"
	 width="100px" height="100px" viewBox="0 0 100 100" enable-background="new 0 0 100 100" xml:space="preserve">
<g>
	<path fill="#FFE600" d="M50,2c26.467,0,48,21.533,48,48c0,26.467-21.533,48-48,48C23.533,98,2,76.467,2,50C2,23.533,23.533,2,50,2
		 M50,0C22.386,0,0,22.386,0,50s22.386,50,50,50s50-22.386,50-50S77.614,0,50,0L50,0z"/>
</g>
<g>
	<path fill="#262626" d="M69,37h-5v-2c0.042-3.414-1.794-5-4-5H40c-2.206,0-4,1.794-4,4v3h-5c-2.206,0-4,1.728-4,3.934v16
		c0,2.206,1.794,4,4,4h4V67c0,2.206,1.794,4,4,4h22c2.206,0,4-1.794,4-4v-6.066h4c2.206,0,4-1.794,4-4v-16
		C73,38.728,71.206,37,69,37z M40,34h20v3H40V34z M61,61v6H39v-6.066v-2v-2V53h22v4v2V61z M69,57h-4v-4
		c0-1.739-1.122-3.208-2.676-3.757C61.907,49.096,61.467,49,61,49H39c-0.466,0-0.907,0.096-1.324,0.242
		C36.123,49.792,35,51.261,35,53v4h-4V40.933h5h4l19.997,0.001H64h5V57z"/>
	<path fill="#262626" d="M55,61H45c-1.104,0-2,0.896-2,2s0.896,2,2,2h10c1.104,0,2-0.896,2-2S56.104,61,55,61z"/>
	<path fill="#262626" d="M55,55H45c-1.104,0-2,0.896-2,2s0.896,2,2,2h10c1.104,0,2-0.896,2-2S56.104,55,55,55z"/>
</g>
</svg>
