<?xml version="1.0" encoding="utf-8"?>
<!-- Generator: Adobe Illustrator 14.0.0, SVG Export Plug-In . SVG Version: 6.00 Build 43363)  -->
<!DOCTYPE svg PUBLIC "-//W3C//DTD SVG 1.1//EN" "http://www.w3.org/Graphics/SVG/1.1/DTD/svg11.dtd">
<svg version="1.1" id="Layer_1" xmlns="http://www.w3.org/2000/svg" xmlns:xlink="http://www.w3.org/1999/xlink" x="0px" y="0px"
	 width="100px" height="100px" viewBox="0 0 100 100" enable-background="new 0 0 100 100" xml:space="preserve">
<g>
	<path fill="#FFE600" d="M50,2c26.467,0,48,21.533,48,48c0,26.467-21.533,48-48,48C23.533,98,2,76.467,2,50C2,23.533,23.533,2,50,2
		 M50,0C22.386,0,0,22.386,0,50s22.386,50,50,50s50-22.386,50-50S77.614,0,50,0L50,0z"/>
</g>
<g>
	<path fill="#262626" d="M80.995,59.95c-0.002-0.069-0.012-0.14-0.021-0.21c-0.009-0.066-0.016-0.133-0.03-0.196
		c-0.005-0.018-0.004-0.035-0.009-0.053l-5-19c-0.021-0.08-0.056-0.153-0.085-0.229C75.012,35.022,70.473,31,65,31
		c-2.912,0-5.557,1.146-7.526,3H42.526c-1.97-1.854-4.614-3-7.526-3c-5.474,0-10.013,4.022-10.85,9.264
		c-0.029,0.075-0.063,0.147-0.084,0.227l-5,19c-0.004,0.017-0.004,0.033-0.008,0.05c-0.016,0.066-0.023,0.136-0.032,0.204
		c-0.009,0.068-0.019,0.137-0.021,0.204C19.005,59.967,19,59.982,19,60c0,3.859,3.14,7,7,7c2.088,0,4.08-0.959,5.403-2.568
		l5.854-5.018C38.397,60.399,39.878,61,41.5,61c3.067,0,5.639-2.138,6.318-5h4.363c0.68,2.862,3.251,5,6.318,5
		c1.621,0,3.103-0.601,4.242-1.586l5.854,5.018C69.92,66.041,71.912,67,74,67c3.859,0,7-3.141,7-7
		C81,59.983,80.995,59.968,80.995,59.95z M35,35c3.86,0,7,3.14,7,7s-3.14,7-7,7s-7-3.14-7-7S31.14,35,35,35z M26,63
		c-1.59,0-2.883-1.247-2.981-2.813l3.089-11.738C28.109,51.2,31.345,53,35,53c0.062,0,0.122-0.008,0.184-0.01
		C35.068,53.476,35,53.979,35,54.5c0,0.494,0.061,0.975,0.166,1.438l-6.467,5.544c-0.004,0.003-0.006,0.007-0.01,0.011
		c-0.044,0.038-0.082,0.086-0.123,0.128c-0.054,0.057-0.111,0.11-0.157,0.171c-0.002,0.003-0.005,0.005-0.007,0.008
		C27.827,62.562,26.952,63,26,63z M41.5,57c-1.378,0-2.5-1.121-2.5-2.5s1.122-2.5,2.5-2.5s2.5,1.121,2.5,2.5S42.878,57,41.5,57z
		 M52.502,52h-5.003c-0.675-1.614-1.985-2.896-3.614-3.541C45.208,46.643,46,44.415,46,42c0-1.412-0.277-2.758-0.764-4h9.528
		C54.277,39.242,54,40.588,54,42c0,2.415,0.791,4.643,2.115,6.459C54.486,49.104,53.177,50.386,52.502,52z M58.5,57
		c-1.379,0-2.5-1.121-2.5-2.5s1.121-2.5,2.5-2.5s2.5,1.121,2.5,2.5S59.879,57,58.5,57z M58,42c0-3.86,3.141-7,7-7s7,3.14,7,7
		s-3.141,7-7,7S58,45.86,58,42z M74,63c-0.952,0-1.827-0.438-2.401-1.201c-0.002-0.003-0.004-0.004-0.006-0.007
		c-0.046-0.06-0.102-0.112-0.154-0.167c-0.043-0.045-0.082-0.094-0.128-0.134c-0.003-0.003-0.005-0.007-0.009-0.01l-6.468-5.544
		C64.939,55.475,65,54.994,65,54.5c0-0.521-0.068-1.024-0.185-1.51C64.878,52.992,64.938,53,65,53c3.655,0,6.891-1.799,8.892-4.551
		l3.09,11.738C76.882,61.753,75.59,63,74,63z"/>
	<path fill="#262626" d="M32,44h1v1c0,1.104,0.896,2,2,2s2-0.896,2-2v-1h1c1.104,0,2-0.896,2-2s-0.896-2-2-2h-1v-1
		c0-1.104-0.896-2-2-2s-2,0.896-2,2v1h-1c-1.104,0-2,0.896-2,2S30.896,44,32,44z"/>
	<circle fill="#262626" cx="63" cy="40" r="2"/>
	<circle fill="#262626" cx="67" cy="44" r="2"/>
</g>
</svg>
