<?xml version="1.0" encoding="utf-8"?>
<!-- Generator: Adobe Illustrator 14.0.0, SVG Export Plug-In . SVG Version: 6.00 Build 43363)  -->
<!DOCTYPE svg PUBLIC "-//W3C//DTD SVG 1.1//EN" "http://www.w3.org/Graphics/SVG/1.1/DTD/svg11.dtd">
<svg version="1.1" id="Layer_1" xmlns="http://www.w3.org/2000/svg" xmlns:xlink="http://www.w3.org/1999/xlink" x="0px" y="0px"
	 width="100px" height="100px" viewBox="0 0 100 100" enable-background="new 0 0 100 100" xml:space="preserve">
<g>
	<path fill="#FFE600" d="M50,2c26.467,0,48,21.533,48,48c0,26.467-21.533,48-48,48C23.533,98,2,76.467,2,50C2,23.533,23.533,2,50,2
		 M50,0C22.386,0,0,22.386,0,50s22.386,50,50,50s50-22.386,50-50S77.614,0,50,0L50,0z"/>
</g>
<path fill="#262626" d="M59.902,46L56.33,66H41.028l-3.571-20H59.902 M62.68,42h-28c-1.1,0-1.842,0.886-1.648,1.969l4.297,24.062
	C37.521,69.114,38.58,70,39.679,70h18c1.1,0,2.158-0.886,2.352-1.969l4.297-24.062C64.521,42.886,63.779,42,62.68,42L62.68,42z"/>
<g>
	<path fill="#262626" d="M55.68,40c-1.076,0-1.953-0.85-1.998-1.914c-0.26-0.295-1.238-0.744-1.836-1.018
		c-1.656-0.761-4.166-1.91-4.166-4.568s2.509-3.808,4.166-4.568c0.598-0.273,1.576-0.722,1.836-1.018
		C53.727,25.849,54.604,25,55.68,25c1.104,0,2,0.896,2,2c0,2.658-2.508,3.808-4.168,4.568c-0.541,0.248-1.396,0.64-1.744,0.932
		c0.348,0.292,1.203,0.684,1.744,0.932c1.66,0.761,4.168,1.91,4.168,4.568C57.68,39.104,56.783,40,55.68,40L55.68,40z"/>
</g>
<g>
	<path fill="#262626" d="M45,40c-1.076,0-1.953-0.85-1.998-1.914c-0.26-0.295-1.238-0.744-1.836-1.018
		C39.51,36.308,37,35.158,37,32.5s2.509-3.808,4.166-4.568c0.598-0.273,1.576-0.722,1.836-1.018C43.047,25.849,43.924,25,45,25
		c1.104,0,2,0.896,2,2c0,2.658-2.508,3.808-4.168,4.568c-0.541,0.248-1.396,0.64-1.744,0.932c0.348,0.292,1.203,0.684,1.744,0.932
		C44.492,34.192,47,35.342,47,38C47,39.104,46.104,40,45,40L45,40z"/>
</g>
<path fill="#262626" d="M58.846,64.993l-0.332-3.986C58.611,60.998,68.68,60.058,68.68,54c0-1.767-1.234-3-3-3
	c-1.023,0-1.918,0.426-2.453,1.169l-3.246-2.338C61.277,48.031,63.354,47,65.68,47c3.99,0,7,3.01,7,7
	C72.68,63.729,59.41,64.945,58.846,64.993L58.846,64.993z"/>
</svg>
