<?xml version="1.0" encoding="utf-8"?>
<!-- Generator: Adobe Illustrator 14.0.0, SVG Export Plug-In . SVG Version: 6.00 Build 43363)  -->
<!DOCTYPE svg PUBLIC "-//W3C//DTD SVG 1.1//EN" "http://www.w3.org/Graphics/SVG/1.1/DTD/svg11.dtd">
<svg version="1.1" id="Layer_1" xmlns="http://www.w3.org/2000/svg" xmlns:xlink="http://www.w3.org/1999/xlink" x="0px" y="0px"
	 width="100px" height="100px" viewBox="0 0 100 100" enable-background="new 0 0 100 100" xml:space="preserve">
<g>
	<path fill="#FFE600" d="M50,2c26.467,0,48,21.533,48,48c0,26.467-21.533,48-48,48C23.533,98,2,76.467,2,50C2,23.533,23.533,2,50,2
		 M50,0C22.386,0,0,22.386,0,50s22.386,50,50,50s50-22.386,50-50S77.614,0,50,0L50,0z"/>
</g>
<g>
	<path fill="#262626" d="M36.79,47h-4v-2.219C32.79,35.528,40.51,28,50,28c9.49,0,17.211,7.528,17.211,16.781v1.479h-4v-1.479
		C63.211,37.733,57.284,32,50,32s-13.21,5.733-13.21,12.781V47L36.79,47z"/>
</g>
<g>
	<path fill="#262626" d="M68.5,58c-3.032,0-5.5-2.691-5.5-6v-5c0-3.309,2.468-6,5.5-6s5.5,2.691,5.5,6v5
		C74,55.309,71.532,58,68.5,58L68.5,58z M68.5,45c-0.799,0-1.5,0.935-1.5,2v5c0,1.065,0.701,2,1.5,2s1.5-0.935,1.5-2v-5
		C70,45.935,69.299,45,68.5,45L68.5,45z"/>
</g>
<g>
	<path fill="#262626" d="M31.5,58c-3.033,0-5.5-2.691-5.5-6v-5c0-3.309,2.467-6,5.5-6s5.5,2.691,5.5,6v5
		C37,55.309,34.533,58,31.5,58L31.5,58z M31.5,45c-0.799,0-1.5,0.935-1.5,2v5c0,1.065,0.701,2,1.5,2s1.5-0.935,1.5-2v-5
		C33,45.935,32.299,45,31.5,45L31.5,45z"/>
</g>
<path fill="#262626" d="M50,62c-3.309,0-6,2.691-6,6s2.691,6,6,6s6-2.691,6-6S53.309,62,50,62z M50,72c-2.2,0-4-1.8-4-4s1.8-4,4-4
	s4,1.8,4,4S52.2,72,50,72z"/>
<path fill="#262626" d="M63,48.947v6.324c0,5.287-3.936,9.758-9.311,11.189C53.889,66.936,54,67.455,54,68
	c0,1.041-0.412,1.984-1.069,2.697C60.91,69.411,67,62.992,67,55.271v-6.324H63z"/>
<path fill="#262626" d="M50,70c-1.103,0-2-0.897-2-2s0.897-2,2-2c0.672,0,1.265,0.336,1.627,0.846
	c0.706-0.08,1.396-0.207,2.062-0.385C53.083,65.02,51.655,64,50,64c-2.2,0-4,1.8-4,4s1.8,4,4,4c1.159,0,2.198-0.508,2.931-1.303
	c-0.954,0.154-1.93,0.25-2.931,0.25V70z"/>
<path fill="#262626" d="M53.689,66.461c-0.667,0.178-1.356,0.305-2.062,0.385C51.86,67.173,52,67.569,52,68c0,1.103-0.897,2-2,2
	v0.947c1.001,0,1.977-0.096,2.931-0.25C53.588,69.984,54,69.041,54,68C54,67.455,53.889,66.936,53.689,66.461z"/>
</svg>
