<?xml version="1.0" encoding="utf-8"?>
<!-- Generator: Adobe Illustrator 14.0.0, SVG Export Plug-In . SVG Version: 6.00 Build 43363)  -->
<!DOCTYPE svg PUBLIC "-//W3C//DTD SVG 1.1//EN" "http://www.w3.org/Graphics/SVG/1.1/DTD/svg11.dtd">
<svg version="1.1" id="Layer_1" xmlns="http://www.w3.org/2000/svg" xmlns:xlink="http://www.w3.org/1999/xlink" x="0px" y="0px"
	 width="100px" height="100px" viewBox="0 0 100 100" enable-background="new 0 0 100 100" xml:space="preserve">
<g>
	<path fill="#FFE600" d="M50,2c26.467,0,48,21.533,48,48c0,26.467-21.533,48-48,48C23.533,98,2,76.467,2,50C2,23.533,23.533,2,50,2
		 M50,0C22.386,0,0,22.386,0,50s22.386,50,50,50s50-22.386,50-50S77.614,0,50,0L50,0z"/>
</g>
<g>
	<path fill="#262626" d="M74,54h-5h-1.232c0.083-0.321,0.142-0.652,0.142-1v-5c0-2.206-1.794-4-4-4H56c-2.206,0-4,1.794-4,4v5
		c0,0.348,0.059,0.679,0.142,1H49h-1.142C47.941,53.679,48,53.348,48,53v-5c0-2.206-1.794-4-4-4h-7.909C33.885,44,32,45.794,32,48v5
		c0,0.348-0.083,0.679,0,1h-5h-1c-1.104,0-2,0.896-2,2s0.896,2,2,2h1h3v9c0,1.104,0.896,2,2,2s2-0.896,2-2v-2h32v2
		c0,1.104,0.896,2,2,2s2-0.896,2-2v-9h4c1.104,0,2-0.896,2-2S75.104,54,74,54z M56,48h8v6h-8V48z M36,48h8v6h-8V48z M66,58v3H34v-3
		H66z"/>
	<path fill="#262626" d="M40,42c3.309,0,6-2.691,6-6s-2.691-6-6-6s-6,2.691-6,6S36.691,42,40,42z M40,34c1.103,0,2,0.897,2,2
		s-0.897,2-2,2s-2-0.897-2-2S38.897,34,40,34z"/>
	<path fill="#262626" d="M60,42c3.309,0,6-2.691,6-6s-2.691-6-6-6s-6,2.691-6,6S56.691,42,60,42z M60,34c1.103,0,2,0.897,2,2
		s-0.897,2-2,2s-2-0.897-2-2S58.897,34,60,34z"/>
</g>
</svg>
