<?xml version="1.0" encoding="utf-8"?>
<!-- Generator: Adobe Illustrator 14.0.0, SVG Export Plug-In . SVG Version: 6.00 Build 43363)  -->
<!DOCTYPE svg PUBLIC "-//W3C//DTD SVG 1.1//EN" "http://www.w3.org/Graphics/SVG/1.1/DTD/svg11.dtd">
<svg version="1.1" id="Layer_1" xmlns="http://www.w3.org/2000/svg" xmlns:xlink="http://www.w3.org/1999/xlink" x="0px" y="0px"
	 width="100px" height="100px" viewBox="0 0 100 100" enable-background="new 0 0 100 100" xml:space="preserve">
<g>
	<path fill="#FFE600" d="M50,2c26.467,0,48,21.533,48,48c0,26.467-21.533,48-48,48C23.533,98,2,76.467,2,50C2,23.533,23.533,2,50,2
		 M50,0C22.386,0,0,22.386,0,50s22.386,50,50,50s50-22.386,50-50S77.614,0,50,0L50,0z"/>
</g>
<g>
	<g>
		<path fill="#262626" d="M64.548,53.054c-0.513,0-1.024-0.195-1.415-0.587c-3.506-3.509-8.17-5.442-13.133-5.442
			c-4.962,0-9.626,1.933-13.133,5.442c-0.781,0.783-2.047,0.781-2.829,0.002c-0.781-0.78-0.782-2.046-0.001-2.828
			c4.262-4.267,9.931-6.616,15.963-6.616s11.701,2.35,15.963,6.616c0.78,0.782,0.78,2.047-0.002,2.828
			C65.571,52.858,65.06,53.054,64.548,53.054L64.548,53.054z"/>
	</g>
	<g>
		<path fill="#262626" d="M57.11,58.999c-0.513,0-1.024-0.195-1.415-0.587c-1.521-1.521-3.543-2.359-5.696-2.359
			c-2.152,0-4.175,0.838-5.696,2.36c-0.78,0.781-2.047,0.78-2.828,0.001c-0.781-0.781-0.782-2.048-0.001-2.829
			c2.276-2.277,5.304-3.532,8.525-3.532c3.222,0,6.25,1.255,8.526,3.533c0.78,0.781,0.78,2.047-0.002,2.828
			C58.134,58.804,57.622,58.999,57.11,58.999L57.11,58.999z"/>
	</g>
	<g>
		<path fill="#262626" d="M72.049,47.135c-0.512,0-1.023-0.195-1.414-0.586c-11.379-11.377-29.892-11.377-41.27,0
			c-0.78,0.781-2.048,0.781-2.828,0c-0.781-0.781-0.781-2.047,0-2.828c12.937-12.938,33.988-12.938,46.926,0
			c0.781,0.781,0.781,2.047,0,2.828C73.072,46.94,72.561,47.135,72.049,47.135L72.049,47.135z"/>
	</g>
	<g>
		<circle fill="#262626" cx="50" cy="63.999" r="3"/>
	</g>
</g>
</svg>
